<svg viewBox="0 0 512 512" xmlns="http://www.w3.org/2000/svg"><path d="m512 256c0 141.386719-114.613281 256-256 256-37.90625 0-73.886719-8.25-106.253906-23.035156-25.574219-55.980469-70.730469-101.136719-126.710938-126.710938-14.789062-32.367187-23.035156-68.347656-23.035156-106.253906 0-141.386719 114.613281-256 256-256s256 114.613281 256 256zm0 0" fill="#b1529e"/><path d="m379.410156 259.867188-229.277344 229.277343c-56.289062-25.601562-101.675781-70.988281-127.277343-127.277343l229.277343-229.277344c15.621094-15.621094 40.945313-15.621094 56.566407 0 3.90625 3.902344 10.238281 3.902344 14.144531 0l84.851562-84.855469c-3.90625-3.902344-3.90625-10.234375 0-14.140625s10.238282-3.90625 14.144532 0l56.566406 56.570312c3.90625 3.902344 3.90625 10.234376 0 14.140626-3.902344 3.90625-10.234375 3.90625-14.140625 0l-84.855469 84.851562c-3.902344 3.90625-3.902344 10.238281 0 14.144531 15.621094 15.621094 15.621094 40.945313 0 56.566407zm0 0" fill="#e1ebf0"/><path d="m332.742188 170.773438c-3.90625 3.902343-10.238282 3.902343-14.140626 0-15.621093-15.621094-40.949218-15.621094-56.570312 0l-222.28125 222.28125c-6.320312-9.953126-11.976562-20.367188-16.894531-31.1875l229.277343-229.277344c15.621094-15.621094 40.945313-15.621094 56.566407 0 3.90625 3.902344 10.238281 3.902344 14.144531 0l84.851562-84.855469c-3.90625-3.902344-3.90625-10.234375 0-14.140625s10.238282-3.90625 14.144532 0l24.039062 24.042969zm0 0" fill="#b4d2d7"/><path d="m351.835938 246.433594c1.949218 1.953125 1.949218 5.117187 0 7.070312l-224.089844 224.089844c-38.664063-22.425781-70.914063-54.675781-93.339844-93.339844l201.460938-201.460937c1.953124-1.953125 5.117187-1.953125 7.070312 0l3.761719 3.761719c13.707031 13.707031 31.050781 23.199218 49.980469 27.351562 18.929687 4.15625 36.273437 13.648438 49.976562 27.351562zm0 0" fill="#ecb700"/><path d="m351.835938 246.433594c1.949218 1.953125 1.949218 5.117187 0 7.070312l-214.746094 214.746094c-19.085938-67.820312 24.339844-174.558594 113.199218-263.417969 2.75-2.75 5.523438-5.445312 8.308594-8.109375 11.320313 8.273438 24.273438 14.152344 38.082032 17.183594 18.929687 4.15625 36.273437 13.648438 49.976562 27.351562zm137.355468-202.410156-21.214844-21.210938c-3.90625-3.90625-10.238281-3.90625-14.140624 0l-21.390626 21.386719c-3.90625 3.90625-3.90625 10.238281 0 14.144531l21.210938 21.210938c3.90625 3.90625 10.238281 3.90625 14.144531 0l21.390625-21.390626c3.902344-3.902343 3.902344-10.234374 0-14.140624zm0 0" fill="#f5c02c"/><path d="m489.191406 58.164062-21.390625 21.390626c-3.90625 3.90625-10.238281 3.90625-14.144531 0l-7.777344-7.777344c-3.902344-3.90625-3.902344-10.238282 0-14.140625l21.390625-21.390625c3.90625-3.90625 10.238281-3.90625 14.140625 0l7.78125 7.777344c3.902344 3.90625 3.902344 10.238281 0 14.140624zm0 0" fill="#f3d373"/><path d="m188.492188 196.226562 127.277343 127.28125-113.132812 113.136719-127.28125-127.28125zm0 0" fill="#f7e6b0"/><path d="m212.535156 220.269531 103.238282 103.238281-113.136719 113.136719-103.238281-103.238281zm0 0" fill="#fff5f5"/><path d="m198.59375 244.617188c16.570312 0 30 17.910156 30 40 0 22.089843-13.429688 40-30 40s-30-17.910157-30-40c0-22.09375 13.429688-40 30-40zm0 0" fill="#ecb700"/><path d="m198.59375 244.617188c5.523438 0 10 4.476562 10 10 0 5.523437-4.476562 10-10 10s-10-4.476563-10-10c0-5.523438 4.476562-10 10-10zm0 0" fill="#cd9e00"/><path d="m227.382812 343.40625c-22.089843 0-40-13.429688-40-30s17.910157-30 40-30c22.089844 0 40 13.429688 40 30s-17.90625 30-40 30zm0 0" fill="#f5dc90"/><path d="m257.382812 323.40625c-5.523437 0-10-4.476562-10-10s4.476563-10 10-10c5.523438 0 10 4.476562 10 10s-4.476562 10-10 10zm0 0" fill="#ecb700"/><path d="m185.367188 376.953125-50.320313-50.320313c-1.171875-1.171874-1.171875-3.074218 0-4.246093l9.898437-9.898438c1.171876-1.171875 3.074219-1.171875 4.246094 0l50.320313 50.320313c1.171875 1.171875 1.171875 3.070312 0 4.242187l-9.898438 9.898438c-1.171875 1.175781-3.074219 1.175781-4.246093.003906zm0 0" fill="#f5dc90"/><path d="m418.300781 129.054688c-3.902343 3.902343-10.234375 3.902343-14.140625 0l-21.214844-21.214844c-3.902343-3.90625-3.902343-10.238282 0-14.140625l49.5-49.5 35.355469 35.355469zm0 0" fill="#7daebd"/></svg>