<?xml version="1.0" encoding="UTF-8" standalone="no"?>
<!-- Generator: Adobe Illustrator 16.0.0, SVG Export Plug-In . SVG Version: 6.00 Build 0)  -->

<svg
   xmlns:dc="http://purl.org/dc/elements/1.1/"
   xmlns:cc="http://creativecommons.org/ns#"
   xmlns:rdf="http://www.w3.org/1999/02/22-rdf-syntax-ns#"
   xmlns:svg="http://www.w3.org/2000/svg"
   xmlns="http://www.w3.org/2000/svg"
   xmlns:sodipodi="http://sodipodi.sourceforge.net/DTD/sodipodi-0.dtd"
   xmlns:inkscape="http://www.inkscape.org/namespaces/inkscape"
   version="1.1"
   id="Capa_1"
   x="0px"
   y="0px"
   width="339.177px"
   height="339.177px"
   viewBox="0 0 339.177 339.177"
   style="enable-background:new 0 0 339.177 339.177;"
   xml:space="preserve"
   inkscape:version="0.91 r13725"
   sodipodi:docname="cancel.svg"><metadata
     id="metadata8295"><rdf:RDF><cc:Work
         rdf:about=""><dc:format>image/svg+xml</dc:format><dc:type
           rdf:resource="http://purl.org/dc/dcmitype/StillImage" /><dc:title></dc:title></cc:Work></rdf:RDF></metadata><defs
     id="defs8293" /><sodipodi:namedview
     pagecolor="#ffffff"
     bordercolor="#666666"
     borderopacity="1"
     objecttolerance="10"
     gridtolerance="10"
     guidetolerance="10"
     inkscape:pageopacity="0"
     inkscape:pageshadow="2"
     inkscape:window-width="702"
     inkscape:window-height="480"
     id="namedview8291"
     showgrid="false"
     inkscape:zoom="0.69580189"
     inkscape:cx="169.5885"
     inkscape:cy="169.5885"
     inkscape:window-x="0"
     inkscape:window-y="0"
     inkscape:window-maximized="0"
     inkscape:current-layer="Capa_1" /><g
     id="g8257"><path
       d="M247.244,169.59l83.938-83.938c5.332-5.327,7.994-11.798,7.994-19.414c0-7.614-2.669-14.084-7.994-19.414L292.355,7.993   C287.026,2.665,280.556,0,272.944,0c-7.617,0-14.085,2.665-19.417,7.993L169.59,91.931L85.651,7.993   C80.325,2.665,73.854,0,66.237,0c-7.611,0-14.083,2.665-19.414,7.993L7.994,46.824C2.667,52.15,0,58.624,0,66.238   c0,7.616,2.664,14.084,7.994,19.414l83.937,83.938L7.994,253.528C2.667,258.859,0,265.327,0,272.945   c0,7.61,2.664,14.082,7.994,19.41l38.83,38.828c5.33,5.332,11.803,7.994,19.414,7.994c7.616,0,14.084-2.669,19.414-7.994   l83.939-83.938l83.944,83.938c5.328,5.332,11.793,7.994,19.417,7.994c7.611,0,14.082-2.669,19.411-7.994l38.82-38.828   c5.332-5.324,7.994-11.8,7.994-19.41c0-7.618-2.662-14.086-7.994-19.417L247.244,169.59z"
       id="path8259" /></g><g
     id="g8261" /><g
     id="g8263" /><g
     id="g8265" /><g
     id="g8267" /><g
     id="g8269" /><g
     id="g8271" /><g
     id="g8273" /><g
     id="g8275" /><g
     id="g8277" /><g
     id="g8279" /><g
     id="g8281" /><g
     id="g8283" /><g
     id="g8285" /><g
     id="g8287" /><g
     id="g8289" /></svg>