<?xml version="1.0" encoding="UTF-8" standalone="no"?>
<!-- Generator: Adobe Illustrator 16.0.0, SVG Export Plug-In . SVG Version: 6.00 Build 0)  -->

<svg
   xmlns:dc="http://purl.org/dc/elements/1.1/"
   xmlns:cc="http://creativecommons.org/ns#"
   xmlns:rdf="http://www.w3.org/1999/02/22-rdf-syntax-ns#"
   xmlns:svg="http://www.w3.org/2000/svg"
   xmlns="http://www.w3.org/2000/svg"
   xmlns:sodipodi="http://sodipodi.sourceforge.net/DTD/sodipodi-0.dtd"
   xmlns:inkscape="http://www.inkscape.org/namespaces/inkscape"
   version="1.1"
   id="Capa_1"
   x="0px"
   y="0px"
   width="438.533px"
   height="438.533px"
   viewBox="0 0 438.533 438.533"
   style="enable-background:new 0 0 438.533 438.533;"
   xml:space="preserve"
   inkscape:version="0.91 r13725"
   sodipodi:docname="edit-circle.svg"><metadata
     id="metadata41"><rdf:RDF><cc:Work
         rdf:about=""><dc:format>image/svg+xml</dc:format><dc:type
           rdf:resource="http://purl.org/dc/dcmitype/StillImage" /><dc:title></dc:title></cc:Work></rdf:RDF></metadata><defs
     id="defs39"><pattern
       y="0"
       x="0"
       height="6"
       width="6"
       patternUnits="userSpaceOnUse"
       id="EMFhbasepattern" /></defs><sodipodi:namedview
     pagecolor="#ffffff"
     bordercolor="#666666"
     borderopacity="1"
     objecttolerance="10"
     gridtolerance="10"
     guidetolerance="10"
     inkscape:pageopacity="0"
     inkscape:pageshadow="2"
     inkscape:window-width="702"
     inkscape:window-height="480"
     id="namedview37"
     showgrid="false"
     inkscape:zoom="0.53815792"
     inkscape:cx="219.26649"
     inkscape:cy="221.84846"
     inkscape:window-x="0"
     inkscape:window-y="0"
     inkscape:window-maximized="0"
     inkscape:current-layer="Capa_1" /><g
     id="g3"><path
       d="M409.133,109.203c-19.608-33.592-46.205-60.189-79.798-79.796C295.736,9.801,259.058,0,219.273,0   c-39.781,0-76.47,9.801-110.063,29.407c-33.595,19.604-60.192,46.201-79.8,79.796C9.801,142.8,0,179.489,0,219.267   c0,39.78,9.804,76.463,29.407,110.062c19.607,33.592,46.204,60.189,79.799,79.798c33.597,19.605,70.283,29.407,110.063,29.407   s76.47-9.802,110.065-29.407c33.593-19.602,60.189-46.206,79.795-79.798c19.603-33.596,29.403-70.284,29.403-110.062   C438.533,179.485,428.732,142.795,409.133,109.203z M353.742,297.208c-13.894,23.791-32.736,42.633-56.527,56.534   c-23.791,13.894-49.771,20.834-77.945,20.834c-28.167,0-54.149-6.94-77.943-20.834c-23.791-13.901-42.633-32.743-56.527-56.534   c-13.897-23.791-20.843-49.772-20.843-77.941c0-28.171,6.949-54.152,20.843-77.943c13.891-23.791,32.738-42.637,56.527-56.53   c23.791-13.895,49.772-20.84,77.943-20.84c28.173,0,54.154,6.945,77.945,20.84c23.791,13.894,42.634,32.739,56.527,56.53   c13.895,23.791,20.838,49.772,20.838,77.943C374.58,247.436,367.637,273.417,353.742,297.208z"
       id="path5" /></g><g
     id="g7" /><g
     id="g9" /><g
     id="g11" /><g
     id="g13" /><g
     id="g15" /><g
     id="g17" /><g
     id="g19" /><g
     id="g21" /><g
     id="g23" /><g
     id="g25" /><g
     id="g27" /><g
     id="g29" /><g
     id="g31" /><g
     id="g33" /><g
     id="g35" /><g
     id="g4185"
     transform="translate(6.50317,0.9296)"><path
       style="fill:#000000;fill-opacity:1;fill-rule:nonzero;stroke:none"
       d="m 115.57245,266.60869 0,48.91909 48.91873,0 114.21808,-114.17369 -48.96312,-48.96337 -114.17369,114.21797 z m 42.13438,32.58298 0,0 -9.50701,0 0,-16.29148 -16.336,0 0,-9.50709 19.7282,-19.72832 25.84284,25.8432 -19.72803,19.68369 z m 74.58346,-116.71785 -59.45257,59.49679 c -1.91927,1.91928 -3.79391,1.96392 -5.62387,0.1339 -1.78535,-1.78476 -1.74074,-3.65941 0.1786,-5.57868 l 59.45254,-59.49721 c 1.9639,-1.91927 3.79388,-1.96388 5.6239,-0.1339 1.82999,1.78538 1.74074,3.66001 -0.1786,5.5791 z"
       id="path4174"
       inkscape:connector-curvature="0" /><path
       style="fill:#000000;fill-opacity:1;fill-rule:nonzero;stroke:none"
       d="m 305.17735,151.7212 -25.79859,-25.79835 c -3.16901,-3.16902 -7.05219,-4.77583 -11.56024,-4.77583 -4.55268,0 -8.39124,1.60681 -11.56025,4.77583 l -15.62197,15.62182 48.91907,48.91867 15.62198,-15.62179 c 3.16902,-3.16896 4.77586,-7.00752 4.77586,-11.56014 0,-4.50804 -1.60684,-8.39116 -4.77586,-11.56021 z"
       id="path4176"
       inkscape:connector-curvature="0" /></g></svg>