<?xml version="1.0" encoding="UTF-8" standalone="no"?>
<!-- Generator: Adobe Illustrator 16.0.0, SVG Export Plug-In . SVG Version: 6.00 Build 0)  -->

<svg
   xmlns:dc="http://purl.org/dc/elements/1.1/"
   xmlns:cc="http://creativecommons.org/ns#"
   xmlns:rdf="http://www.w3.org/1999/02/22-rdf-syntax-ns#"
   xmlns:svg="http://www.w3.org/2000/svg"
   xmlns="http://www.w3.org/2000/svg"
   xmlns:sodipodi="http://sodipodi.sourceforge.net/DTD/sodipodi-0.dtd"
   xmlns:inkscape="http://www.inkscape.org/namespaces/inkscape"
   version="1.1"
   id="Capa_1"
   x="0px"
   y="0px"
   width="432.544px"
   height="432.544px"
   viewBox="0 0 432.544 432.544"
   style="enable-background:new 0 0 432.544 432.544;"
   xml:space="preserve"
   inkscape:version="0.91 r13725"
   sodipodi:docname="edit.svg"><metadata
     id="metadata45"><rdf:RDF><cc:Work
         rdf:about=""><dc:format>image/svg+xml</dc:format><dc:type
           rdf:resource="http://purl.org/dc/dcmitype/StillImage" /><dc:title></dc:title></cc:Work></rdf:RDF></metadata><defs
     id="defs43" /><sodipodi:namedview
     pagecolor="#ffffff"
     bordercolor="#666666"
     borderopacity="1"
     objecttolerance="10"
     gridtolerance="10"
     guidetolerance="10"
     inkscape:pageopacity="0"
     inkscape:pageshadow="2"
     inkscape:window-width="702"
     inkscape:window-height="480"
     id="namedview41"
     showgrid="false"
     inkscape:zoom="0.54560922"
     inkscape:cx="216.272"
     inkscape:cy="216.272"
     inkscape:window-x="218"
     inkscape:window-y="113"
     inkscape:window-maximized="0"
     inkscape:current-layer="Capa_1" /><g
     id="g3"><g
       id="g5"><path
         d="M0,313.775v118.77h118.771l237.541-237.541L237.539,76.232L0,313.775z M103.638,395.999L103.638,395.999l-30.55,0.004    v-36.546H36.545v-30.553l25.981-25.981l67.093,67.092L103.638,395.999z M246.683,124.77c4.182,0,6.276,2.095,6.276,6.28    c0,1.906-0.664,3.521-1.999,4.856L96.214,290.651c-1.333,1.328-2.952,1.995-4.854,1.995c-4.184,0-6.279-2.098-6.279-6.279    c0-1.906,0.666-3.521,1.997-4.856l154.747-154.743C243.154,125.436,244.773,124.77,246.683,124.77z"
         id="path7" /><path
         d="M421.976,77.654l-67.091-66.806C347.653,3.619,338.992,0,328.903,0c-10.283,0-18.842,3.619-25.693,10.848l-47.394,47.109    l118.773,118.77l47.394-47.392c7.042-7.043,10.561-15.608,10.561-25.697C432.54,93.743,429.022,85.08,421.976,77.654z"
         id="path9" /></g></g><g
     id="g11" /><g
     id="g13" /><g
     id="g15" /><g
     id="g17" /><g
     id="g19" /><g
     id="g21" /><g
     id="g23" /><g
     id="g25" /><g
     id="g27" /><g
     id="g29" /><g
     id="g31" /><g
     id="g33" /><g
     id="g35" /><g
     id="g37" /><g
     id="g39" /></svg>