<?xml version="1.0" encoding="iso-8859-1"?>
<!-- Generator: Adobe Illustrator 19.0.0, SVG Export Plug-In . SVG Version: 6.00 Build 0)  -->
<svg version="1.1" id="Capa_1" xmlns="http://www.w3.org/2000/svg" xmlns:xlink="http://www.w3.org/1999/xlink" x="0px" y="0px"
	 viewBox="0 0 511.999 511.999" style="enable-background:new 0 0 511.999 511.999;" xml:space="preserve">
<circle style="fill:#34A8C0;" cx="255.999" cy="255.999" r="255.999"/>
<rect x="335.412" y="31.347" style="fill:#992D26;" width="94.041" height="137.163"/>
<rect x="365.191" y="57.992" style="fill:#B5423C;" width="64.261" height="110.519"/>
<path style="fill:#E0E2E2;" d="M429.456,183.494v260.785c-41.514,38.264-95.723,62.976-155.595,67.103
	c-5.172,0.355-10.407,0.564-15.673,0.596c-0.721,0.021-1.452,0.021-2.184,0.021c-4.524,0-9.017-0.115-13.49-0.355
	c-34.659-1.797-67.5-10.491-97.165-24.733c-5.329-2.56-10.553-5.298-15.673-8.213c-5.35-3.03-10.574-6.259-15.673-9.665
	c-11.128-7.429-21.65-15.715-31.451-24.754V183.494L185.86,91.178l70.144-62.683l70.175,62.715L429.456,183.494z"/>
<polygon style="fill:#CCCCCC;" points="429.456,183.494 429.456,269.489 256.004,128.407 82.551,269.489 82.551,183.494 
	185.86,91.178 256.004,34.126 326.179,91.209 "/>
<g>
	<polygon style="fill:#3B465C;" points="58.109,255.235 11.956,198.49 256.001,0 500.043,198.49 453.89,255.235 256.001,94.281 	"/>
	<polygon style="fill:#3B465C;" points="56.446,255.235 10.293,198.49 254.338,0 498.381,198.49 452.229,255.235 254.338,94.281 	
		"/>
</g>
<rect x="323.667" y="0" style="fill:#E0E2E2;" width="117.54" height="41.345"/>
<rect x="323.667" y="0" style="fill:#CCCCCC;" width="26.216" height="41.345"/>
<rect x="175.678" y="252.927" style="fill:#FDBC69;" width="160.642" height="160.642"/>
<path style="fill:#3B465C;" d="M160.008,237.256v191.991h191.991V237.256H160.008z M320.652,303.6h-33.301v-34.997h33.301V303.6z
	 M191.355,268.603h64.65v129.298h-64.65V268.603z M287.352,397.9v-62.954h33.301V397.9H287.352z"/>
<g>
</g>
<g>
</g>
<g>
</g>
<g>
</g>
<g>
</g>
<g>
</g>
<g>
</g>
<g>
</g>
<g>
</g>
<g>
</g>
<g>
</g>
<g>
</g>
<g>
</g>
<g>
</g>
<g>
</g>
</svg>
