<?xml version="1.0" encoding="UTF-8" standalone="no"?>
<!-- Created with Inkscape (http://www.inkscape.org/) -->

<svg
   xmlns:dc="http://purl.org/dc/elements/1.1/"
   xmlns:cc="http://creativecommons.org/ns#"
   xmlns:rdf="http://www.w3.org/1999/02/22-rdf-syntax-ns#"
   xmlns:svg="http://www.w3.org/2000/svg"
   xmlns="http://www.w3.org/2000/svg"
   xmlns:sodipodi="http://sodipodi.sourceforge.net/DTD/sodipodi-0.dtd"
   xmlns:inkscape="http://www.inkscape.org/namespaces/inkscape"
   width="1144"
   height="885"
   viewBox="0 0 1144 884.99998"
   id="svg4159"
   version="1.1"
   inkscape:version="0.91 r13725"
   sodipodi:docname="no-bed.svg">
  <defs
     id="defs4161" />
  <sodipodi:namedview
     id="base"
     pagecolor="#ffffff"
     bordercolor="#666666"
     borderopacity="1.0"
     inkscape:pageopacity="0.0"
     inkscape:pageshadow="2"
     inkscape:zoom="0.35"
     inkscape:cx="265.54886"
     inkscape:cy="367.1469"
     inkscape:document-units="px"
     inkscape:current-layer="layer1"
     showgrid="false"
     inkscape:window-width="1280"
     inkscape:window-height="660"
     inkscape:window-x="-8"
     inkscape:window-y="-8"
     inkscape:window-maximized="1"
     fit-margin-top="0"
     fit-margin-left="0"
     fit-margin-right="0"
     fit-margin-bottom="0"
     units="px" />
  <metadata
     id="metadata4164">
    <rdf:RDF>
      <cc:Work
         rdf:about="">
        <dc:format>image/svg+xml</dc:format>
        <dc:type
           rdf:resource="http://purl.org/dc/dcmitype/StillImage" />
        <dc:title></dc:title>
      </cc:Work>
    </rdf:RDF>
  </metadata>
  <g
     inkscape:label="Layer 1"
     inkscape:groupmode="layer"
     id="layer1"
     transform="translate(130,90.5)">
    <path
       id="path4721"
       style="fill:none;fill-rule:evenodd;stroke:#000000;stroke-width:0.81275225px;stroke-linecap:butt;stroke-linejoin:miter;stroke-opacity:1"
       d="m 759.37974,-7.236481 c -9.48211,0 -18.82876,4.3346782 -28.03995,13.0040355 L 95.767554,641.33979 c -8.669359,7.58568 -13.004035,17.33871 -13.004035,29.25908 0,11.92037 4.334676,21.6734 13.004035,29.25908 9.753026,7.58568 19.506056,11.37853 29.259076,11.37853 8.66936,0 17.88055,-3.79285 27.63358,-11.37853 L 788.23245,64.285714 c 8.66938,-8.669357 13.00403,-18.422384 13.00403,-29.25908 0,-10.836696 -4.33465,-20.589722 -13.00403,-29.2590795 C 778.47942,-2.9018028 768.86185,-7.236481 759.37974,-7.236481 Z M 5.3583947,61.817297 c -7.0163347,-0.126992 -13.3183422,2.603347 -18.9060137,8.191019 -5.96018,5.960183 -8.940274,13.004038 -8.940274,21.131561 l 0,551.046003 40.266158,0 75.957409,-75.95742 0,-40.26615 40.266156,0 116.22357,-116.22356 -156.489726,0 0,-318.598873 C 93.193836,82.470517 90.21375,75.426662 84.7954,70.008316 79.377049,64.589967 72.604116,61.880793 64.476594,61.880793 l -57.7054076,0 c -0.4741051,-0.03387 -0.9450357,-0.05503 -1.4127917,-0.0635 z M 238.40557,148.84528 c -31.96825,0 -59.33091,11.37854 -82.08798,34.1356 -22.75706,22.75706 -33.86467,50.11971 -33.32284,82.08797 0.54184,31.96825 11.64945,59.33091 33.32284,82.08798 21.6734,22.75706 49.03605,34.13559 82.08798,34.13559 19.16356,0 36.41101,-3.83307 51.74946,-11.4833 l 50.5716,-50.57161 c 8.59351,-16.2849 13.23035,-34.34 13.90251,-54.16866 0,-31.96826 -11.37853,-59.33091 -34.1356,-82.08797 -22.75706,-22.75706 -50.11972,-34.1356 -82.08797,-34.1356 z m 174.74173,29.25908 c -8.12753,0 -14.90046,2.70918 -20.31881,8.12753 -5.41835,5.41834 -8.39844,12.19128 -8.94027,20.3188 l 0,69.52523 97.97156,-97.97156 -68.71248,0 z m 339.74153,0.87149 -202.31656,202.31657 355.91562,0 0,-29.25908 c 0,-48.2233 -17.06779,-89.40275 -51.20339,-123.53834 -29.18105,-29.18103 -63.31559,-45.67967 -102.39567,-49.51915 z m -230.76289,230.7629 -116.22198,116.22356 384.36037,0 0,116.22357 116.22356,0 0,-203.18805 c -0.54186,-7.5857 -3.5219,-14.35863 -8.94027,-20.31881 -5.41838,-5.96019 -12.19128,-8.94027 -20.31881,-8.94027 l -355.10287,0 z"
       inkscape:connector-curvature="0" />
  </g>
</svg>
