<?xml version="1.0" encoding="UTF-8" standalone="no"?>
<svg
   xmlns:dc="http://purl.org/dc/elements/1.1/"
   xmlns:cc="http://creativecommons.org/ns#"
   xmlns:rdf="http://www.w3.org/1999/02/22-rdf-syntax-ns#"
   xmlns:svg="http://www.w3.org/2000/svg"
   xmlns="http://www.w3.org/2000/svg"
   version="1.1"
   id="svg4159"
   viewBox="0 0 1144 884.99998"
   height="885"
   width="1144">
  <defs
     id="defs4161" />
  <metadata
     id="metadata4164">
    <rdf:RDF>
      <cc:Work
         rdf:about="">
        <dc:format>image/svg+xml</dc:format>
        <dc:type
           rdf:resource="http://purl.org/dc/dcmitype/StillImage" />
        <dc:title></dc:title>
      </cc:Work>
    </rdf:RDF>
  </metadata>
  <g
     transform="translate(130,90.5)"
     id="layer1">
    <path
       d="m 667.37442,-14.022785 c -9.66123,0 -19.18367,4.4170536 -28.56886,13.25016642 L -8.772618,646.80555 c -8.833114,7.72897 -13.250169,17.66639 -13.250169,29.81192 0,12.14553 4.417055,22.08294 13.250169,29.8119 9.937254,7.72897 19.874658,11.59342 29.811908,11.59342 8.83311,0 18.21789,-3.86445 28.15516,-11.59342 L 696.77262,58.851196 c 8.83313,-8.833115 13.25016,-18.770518 13.25016,-29.811902 0,-11.041393 -4.41703,-20.9787998 -13.25016,-29.81191258 C 686.83536,-9.6057314 677.03563,-14.022785 667.37442,-14.022785 Z m -768.26309,70.358738 c -7.14887,-0.129387 -13.57022,2.652724 -19.26344,8.345937 -6.07276,6.072762 -9.10925,13.249026 -9.10925,21.530066 l 0,561.455964 41.026579,0 77.391704,-77.39364 0,-41.02657 41.026577,0 118.42022,-118.41829 -159.446797,0 0,-324.617464 c -0.552074,-8.833114 -3.588554,-16.009369 -9.109251,-21.530066 -5.520697,-5.520697 -12.421621,-8.281835 -20.70266,-8.281835 l -58.794458,0 c -0.483061,-0.03451 -0.962644,-0.05549 -1.439224,-0.06414 z M 136.5597,145.00836 c -32.57211,0 -60.45112,11.59331 -83.63805,34.78024 -23.18691,23.18691 -34.50489,51.06594 -33.95282,83.63805 0.55207,32.57209 11.87005,60.45112 33.95282,83.63804 22.08279,23.18692 49.96179,34.78023 83.63805,34.78023 19.52554,0 37.09863,-3.90549 52.72682,-11.70024 l 51.52649,-51.52648 c 8.75583,-16.5925 13.48011,-34.98835 14.16497,-55.19155 0,-32.57211 -11.59331,-60.45114 -34.78023,-83.63805 -23.18692,-23.18693 -51.06595,-34.78024 -83.63805,-34.78024 z m 178.04209,29.81191 c -8.28104,0 -15.18195,2.7592 -20.70265,8.2799 -5.5207,5.52069 -8.55719,12.42162 -9.10925,20.70266 l 0,70.83848 99.82297,-99.82104 -70.01107,0 z m 346.15919,0.88762 -206.13703,206.13703 362.63735,0 0,-29.8119 c 0,-49.13419 -17.38892,-91.0904 -52.16932,-125.87078 -29.73225,-29.73223 -64.51273,-46.54234 -104.331,-50.45435 z m -235.12154,235.12153 -118.41632,118.41829 391.61996,0 0,118.42021 118.41822,0 0,-207.02659 c -0.55201,-7.72898 -3.58844,-14.62989 -9.10918,-20.70265 -5.52075,-6.07277 -12.42158,-9.10926 -20.7027,-9.10926 l -361.80998,0 z"
       style="fill:none;fill-rule:evenodd;stroke:#000000;stroke-width:0.82810426px;stroke-linecap:butt;stroke-linejoin:miter;stroke-opacity:1"
       id="path4721" />
  </g>
</svg>
