<?xml version="1.0" encoding="UTF-8" standalone="no"?>
<!-- Generator: Adobe Illustrator 16.0.0, SVG Export Plug-In . SVG Version: 6.00 Build 0)  -->

<svg
   xmlns:dc="http://purl.org/dc/elements/1.1/"
   xmlns:cc="http://creativecommons.org/ns#"
   xmlns:rdf="http://www.w3.org/1999/02/22-rdf-syntax-ns#"
   xmlns:svg="http://www.w3.org/2000/svg"
   xmlns="http://www.w3.org/2000/svg"
   xmlns:sodipodi="http://sodipodi.sourceforge.net/DTD/sodipodi-0.dtd"
   xmlns:inkscape="http://www.inkscape.org/namespaces/inkscape"
   version="1.1"
   id="Capa_1"
   x="0px"
   y="0px"
   width="442.533px"
   height="442.533px"
   viewBox="0 0 442.533 442.533"
   style="enable-background:new 0 0 442.533 442.533;"
   xml:space="preserve"
   inkscape:version="0.91 r13725"
   sodipodi:docname="ok.svg"><metadata
     id="metadata6548"><rdf:RDF><cc:Work
         rdf:about=""><dc:format>image/svg+xml</dc:format><dc:type
           rdf:resource="http://purl.org/dc/dcmitype/StillImage" /><dc:title></dc:title></cc:Work></rdf:RDF></metadata><defs
     id="defs6546" /><sodipodi:namedview
     pagecolor="#ffffff"
     bordercolor="#666666"
     borderopacity="1"
     objecttolerance="10"
     gridtolerance="10"
     guidetolerance="10"
     inkscape:pageopacity="0"
     inkscape:pageshadow="2"
     inkscape:window-width="702"
     inkscape:window-height="480"
     id="namedview6544"
     showgrid="false"
     inkscape:zoom="0.53329357"
     inkscape:cx="221.26649"
     inkscape:cy="221.26649"
     inkscape:window-x="0"
     inkscape:window-y="0"
     inkscape:window-maximized="0"
     inkscape:current-layer="Capa_1" /><g
     id="g6510"><path
       d="M434.539,98.499l-38.828-38.828c-5.324-5.328-11.799-7.993-19.41-7.993c-7.618,0-14.093,2.665-19.417,7.993L169.59,247.248   l-83.939-84.225c-5.33-5.33-11.801-7.992-19.412-7.992c-7.616,0-14.087,2.662-19.417,7.992L7.994,201.852   C2.664,207.181,0,213.654,0,221.269c0,7.609,2.664,14.088,7.994,19.416l103.351,103.349l38.831,38.828   c5.327,5.332,11.8,7.994,19.414,7.994c7.611,0,14.084-2.669,19.414-7.994l38.83-38.828L434.539,137.33   c5.325-5.33,7.994-11.802,7.994-19.417C442.537,110.302,439.864,103.829,434.539,98.499z"
       id="path6512" /></g><g
     id="g6514" /><g
     id="g6516" /><g
     id="g6518" /><g
     id="g6520" /><g
     id="g6522" /><g
     id="g6524" /><g
     id="g6526" /><g
     id="g6528" /><g
     id="g6530" /><g
     id="g6532" /><g
     id="g6534" /><g
     id="g6536" /><g
     id="g6538" /><g
     id="g6540" /><g
     id="g6542" /></svg>