<?xml version="1.0" encoding="iso-8859-1"?>
<!-- Generator: Adobe Illustrator 19.0.0, SVG Export Plug-In . SVG Version: 6.00 Build 0)  -->
<svg version="1.1" id="Capa_1" xmlns="http://www.w3.org/2000/svg" xmlns:xlink="http://www.w3.org/1999/xlink" x="0px" y="0px"
	 viewBox="0 0 512 512" style="enable-background:new 0 0 512 512;" xml:space="preserve">
<circle style="fill:#797B89;" cx="256" cy="256" r="256"/>
<path style="fill:#78CAEF;" d="M512,256H0c0-13.291,1.014-26.352,2.968-39.1c0.606-3.918,1.296-7.805,2.069-11.661
	c6.98-34.732,20.992-66.926,40.49-95.013c9.185-13.239,19.581-25.558,31.033-36.801c2.382-2.351,4.807-4.639,7.272-6.886
	C129.296,25.203,189.701,0,256,0c59.016,0,113.361,19.968,156.662,53.52c20.699,16.029,38.86,35.161,53.812,56.707
	c13.845,19.958,24.931,41.984,32.695,65.515C507.496,200.986,512,227.976,512,256z"/>
<polygon style="fill:#279FC9;" points="471.064,278.835 295.973,278.835 295.973,147.723 431.234,147.723 "/>
<path style="fill:#FF525D;" d="M481.687,241.601L444.343,149.4c-3.688-9.101-12.528-15.057-22.35-15.057H275.822v257.975h196.901
	c3.897-6.175,7.534-12.528,10.898-19.048V251.496C483.621,248.111,482.962,244.736,481.687,241.601z M428.972,251.695H321.567
	c-10.156,0-18.38-8.234-18.38-18.38v-52.328c0-10.637,8.62-19.268,19.268-19.268H406.8c7.847,0,14.911,4.765,17.857,12.037
	l21.326,52.663C450.884,238.498,442.002,251.695,428.972,251.695z"/>
<path style="fill:#FFD15C;" d="M275.811,106.82v285.497H39.278C14.388,352.852,0,306.103,0,256c0-13.291,1.014-26.352,2.968-39.1
	c0.606-3.918,1.296-7.805,2.069-11.661c6.98-34.732,20.992-66.926,40.49-95.013c9.185-13.239,19.581-25.558,31.033-36.801h165.846
	C260.859,73.425,275.811,88.377,275.811,106.82z"/>
<path style="fill:#F9EED7;" d="M487.215,366.017c-2.529,5.329-5.245,10.543-8.14,15.653c-2.027,3.605-4.148,7.158-6.353,10.647
	h-71.837c-64.366,0-7.408-19.372-10.313-26.791h93.048C484.864,365.526,486.066,365.693,487.215,366.017z"/>
<path style="fill:#E8DBC4;" d="M479.075,381.67c-2.027,3.605-4.148,7.158-6.353,10.647h-70.207V381.67H479.075z"/>
<path style="fill:#EF4152;" d="M395.254,392.318H275.82V172.635c0.458,30.867,7.388,169.126,94.123,196.515
	C393.769,376.675,399.783,384.608,395.254,392.318z"/>
<path style="fill:#EDBB4C;" d="M197.089,392.317H39.278C14.388,352.852,0,306.103,0,256c0-13.291,1.014-26.352,2.968-39.1
	c0.606-3.918,1.296-7.805,2.069-11.661C35.934,287.775,93.414,380.656,197.089,392.317z"/>
<circle style="fill:#5C5E70;" cx="380.364" cy="392.474" r="59.695"/>
<circle style="fill:#E8DBC4;" cx="380.364" cy="392.474" r="34.544"/>
<path style="fill:#D6C8B0;" d="M388.184,413.817c-16.102,0-29.159-13.057-29.159-29.159c0-11.696,6.881-21.783,16.807-26.423
	c-16.943,2.215-30.014,16.696-30.014,34.233c0,19.085,15.471,34.555,34.556,34.555c17.538,0,32.018-13.07,34.233-30.014
	C409.967,406.936,399.88,413.817,388.184,413.817z"/>
<circle style="fill:#FFD15C;" cx="456.485" cy="324.336" r="21.468"/>
<path style="fill:#EDBB4C;" d="M461.341,337.604c-10.006,0-18.12-8.114-18.12-18.12c0-7.268,4.276-13.536,10.444-16.419
	c-10.528,1.376-18.65,10.375-18.65,21.273c0,11.86,9.613,21.473,21.473,21.473c10.898,0,19.896-8.121,21.273-18.65
	C474.878,333.328,468.61,337.604,461.341,337.604z"/>
<path style="fill:#5C5E70;" d="M118.262,392.464c0,23.625-13.709,44.042-33.625,53.718c-17.471-15.747-32.758-33.876-45.359-53.864
	c-8.558-13.573-15.872-28.003-21.797-43.133c10.7-10.167,25.172-16.405,41.096-16.405
	C91.544,332.779,118.262,359.508,118.262,392.464z"/>
<path style="fill:#E8DBC4;" d="M93.132,392.464c0,16.896-12.121,30.95-28.139,33.959c-4.88-5.444-9.509-11.097-13.887-16.938
	c-4.169-5.548-8.119-11.274-11.828-17.168c-0.533-0.836-1.055-1.682-1.578-2.529c-3.051-4.974-5.945-10.062-8.652-15.256
	c6.06-9.958,17.021-16.603,29.529-16.603C77.657,357.93,93.132,373.394,93.132,392.464z"/>
<g>
	<path style="fill:#D6C8B0;" d="M37.24,384.658c0,1.755,0.157,3.469,0.46,5.13c-3.051-4.974-5.945-10.062-8.652-15.256
		c5.319-8.725,14.399-14.911,24.994-16.3C44.116,362.872,37.24,372.966,37.24,384.658z"/>
	<path style="fill:#D6C8B0;" d="M92.818,397.009c-1.944,14.838-13.27,26.687-27.826,29.414c-4.88-5.444-9.509-11.097-13.887-16.938
		c4.451,2.748,9.686,4.336,15.287,4.336C78.096,413.821,88.179,406.936,92.818,397.009z"/>
</g>
<path style="fill:#EF4152;" d="M313.987,288.632h28.588c3.271,0,5.921-2.651,5.921-5.921v-2.185c0-3.271-2.651-5.921-5.921-5.921
	h-28.588c-3.271,0-5.921,2.651-5.921,5.921v2.185C308.065,285.981,310.716,288.632,313.987,288.632z"/>
<g>
</g>
<g>
</g>
<g>
</g>
<g>
</g>
<g>
</g>
<g>
</g>
<g>
</g>
<g>
</g>
<g>
</g>
<g>
</g>
<g>
</g>
<g>
</g>
<g>
</g>
<g>
</g>
<g>
</g>
</svg>
