<?xml version="1.0" encoding="iso-8859-1"?>
<!-- Generator: Adobe Illustrator 19.0.0, SVG Export Plug-In . SVG Version: 6.00 Build 0)  -->
<svg version="1.1" id="Capa_1" xmlns="http://www.w3.org/2000/svg" xmlns:xlink="http://www.w3.org/1999/xlink" x="0px" y="0px"
	 viewBox="0 0 512 512" style="enable-background:new 0 0 512 512;" xml:space="preserve">
<circle style="fill:#31A7AB;" cx="256" cy="256" r="256"/>
<path style="fill:#13132B;" d="M86.179,199.882h0.01c0.001-16.277,13.187-29.474,29.464-29.474H406.88
	c10.461,0,18.941,8.48,18.941,18.941v10.533l0,0v95.602H86.179V199.882z"/>
<path style="fill:#70D587;" d="M399.14,110.441l-47.26,80.01l-22.97,38.9H115.65c-1.47,0-2.92-0.11-4.33-0.32
	c-2.07-0.3-4.07-0.82-5.98-1.54c-3.69-1.37-7.03-3.46-9.84-6.1L222.61,6.181c3.54-5.98,11.25-7.96,17.23-4.43l74.66,44.1l15.9,9.38
	l35.76,21.12l28.54,16.86C400.68,96.751,402.67,104.461,399.14,110.441z"/>
<path style="fill:#63B472;" d="M399.14,110.441c3.53-5.98,1.54-13.69-4.44-17.23l-28.54-16.86l-35.76-21.12l-15.9-9.38l-9.519-5.623
	l-6.481,5.623l-13.93,12.09l-11.95,10.36l-133.2,115.55l-35.72,31l-7.876,6.83c2.743,2.501,5.965,4.492,9.516,5.81
	c1.91,0.72,3.91,1.24,5.98,1.54c1.41,0.21,2.86,0.32,4.33,0.32h213.26l22.97-38.9L399.14,110.441z"/>
<path style="fill:#4F9959;" d="M268.18,227.801c-0.27,0.52-0.55,1.04-0.85,1.55H181.3c-3.42-6.01-5.54-12.67-6.23-19.52
	c-0.76-7.43,0.16-15.09,2.9-22.37c1-2.65,2.24-5.25,3.73-7.77c7.26-12.3,19.01-20.3,31.93-23.16c7.35-1.63,15.08-1.59,22.57,0.27
	c4.56,1.12,9.04,2.93,13.29,5.44c3.34,1.97,6.36,4.27,9.05,6.85C274.22,184.051,278.56,208.011,268.18,227.801z"/>
<path style="fill:#63B472;" d="M355.28,135.541c-14.95-8.83-19.93-28.18-11.1-43.13c1.01-1.71,1.3-3.76,0.81-5.68
	c-0.5-1.93-1.74-3.58-3.45-4.59l-11.47-6.78l-13.61-8.04l-15.89-9.38l-25.36-14.98c-3.57-2.1-8.17-0.92-10.27,2.65
	c-5.64,9.55-16.05,15.48-27.15,15.48c-5.6,0-11.13-1.52-15.98-4.38c-1.71-1.01-3.76-1.3-5.69-0.81c-1.92,0.5-3.57,1.74-4.58,3.45
	l-91.84,155.5l-8.38,14.18c1.41,0.21,2.86,0.32,4.33,0.32h12.9l26.87-45.5l65.53-110.94c5.35,2.09,11.07,3.18,16.84,3.18
	c13.85,0,26.96-6.26,35.72-16.71l15.11,8.92l15.89,9.39l13.61,8.04l9.85,5.82c-7.23,18.53-1.75,39.83,13.53,52.57l-6.37,10.78
	l-43.97,74.45h17.42l36.68-62.11l12.66-21.43C360.03,142.241,358.85,137.651,355.28,135.541z"/>
<g>
	<path style="fill:#4F9959;" d="M172.234,155.385l-32.814,28.466l-2.895,2.512L119.7,214.851l-8.38,14.18
		c1.41,0.21,2.86,0.32,4.33,0.32h12.9l26.87-45.5L172.234,155.385z"/>
	<path style="fill:#4F9959;" d="M357.92,145.811c2.11-3.57,0.93-8.16-2.64-10.27c-14.95-8.83-19.93-28.18-11.1-43.13
		c1.01-1.71,1.3-3.76,0.81-5.68c-0.5-1.93-1.74-3.58-3.45-4.59l-11.47-6.78l-13.61-8.04l-15.89-9.38l-9.52-5.624l-6.48,5.624
		l-5.469,4.741l9.518,5.619l15.89,9.39l13.61,8.04l9.85,5.82c-7.23,18.53-1.75,39.83,13.53,52.57l-6.37,10.78l-43.97,74.45h17.42
		l36.68-62.11L357.92,145.811z"/>
</g>
<path style="fill:#70D587;" d="M498.15,157.941l-83.99,72.86c-2.24-0.93-4.7-1.45-7.28-1.45H115.65c-1.47,0-2.92-0.11-4.33-0.32
	c-2.07-0.3-4.07-0.82-5.98-1.54c0.41-0.48,0.85-0.93,1.34-1.35l13.02-11.29l35.72-31l133.2-115.55l11.95-10.36l13.93-12.09
	l49.3-42.77c5.25-4.56,13.2-3.99,17.75,1.26l117.86,135.85C503.96,145.441,503.39,153.391,498.15,157.941z"/>
<g>
	<path style="fill:#63B472;" d="M414.16,230.801l6.599-5.724c-3.459-3.732-8.389-6.082-13.879-6.082H115.653
		c-0.238,0-0.474-0.012-0.711-0.018l-8.262,7.164c-0.49,0.42-0.93,0.87-1.34,1.35c1.91,0.72,3.91,1.24,5.98,1.54
		c1.41,0.21,2.86,0.32,4.33,0.32h291.23C409.46,229.351,411.92,229.871,414.16,230.801z"/>
	<path style="fill:#63B472;" d="M334.94,229.351h-65.07c-0.57-0.5-1.14-1.01-1.69-1.55c-1.09-1.05-2.15-2.15-3.16-3.32
		c-13.73-15.83-15.64-37.89-6.48-55.39c2.79-5.34,6.61-10.25,11.43-14.44c18.95-16.45,46.86-15.93,65.16,0.25
		c1.64,1.43,3.2,3,4.67,4.7c2.1,2.41,3.92,4.97,5.46,7.64c4.18,7.21,6.37,15.2,6.62,23.21
		C352.34,204.791,346.59,219.201,334.94,229.351z"/>
	<path style="fill:#63B472;" d="M452.5,112.831l-50.48-58.19c-2.72-3.13-7.45-3.47-10.58-0.75c-5.73,4.97-13.05,7.7-20.62,7.7
		c-9.14,0-17.82-3.96-23.8-10.85c-2.72-3.13-7.46-3.47-10.58-0.75l-6.04,5.24l-13.94,12.09l-11.95,10.37l-90.88,78.84l-35.66,30.93
		l-20.99,18.21c-1.51,1.3-2.43,3.15-2.57,5.13c-0.14,1.99,0.51,3.95,1.82,5.45c3.33,3.83,5.63,8.31,6.79,13.1h15.28
		c-0.95-5.87-3.04-11.61-6.29-16.87l3.06-2.65l61.13-53.03l81.92-71.07l11.95-10.37l10.99-9.53c7.11,5.92,15.85,9.6,25.1,10.52
		c1.54,0.16,3.1,0.24,4.66,0.24c8.65,0,17.09-2.42,24.38-6.92l41.45,47.78c-12.74,15.28-14.3,37.21-3.84,54.15l-66.57,57.75h22.88
		l58.72-50.94c3.13-2.72,3.47-7.45,0.76-10.58c-11.38-13.12-9.97-33.05,3.15-44.42C454.88,120.691,455.21,115.951,452.5,112.831z"/>
</g>
<g>
	<path style="fill:#4F9959;" d="M163.02,229.351h15.28c-0.57-3.525-1.561-7.001-2.958-10.356h-16.987
		C160.55,222.16,162.127,225.662,163.02,229.351z"/>
	<polygon style="fill:#4F9959;" points="378.178,218.994 366.24,229.351 389.12,229.351 401.058,218.994 	"/>
	<path style="fill:#4F9959;" d="M260.895,218.994c1.233,1.894,2.602,3.73,4.125,5.486c1.01,1.17,2.07,2.27,3.16,3.32
		c0.55,0.54,1.12,1.05,1.69,1.55h65.07c3.553-3.096,6.55-6.591,8.996-10.356L260.895,218.994L260.895,218.994z"/>
</g>
<path style="fill:#272749;" d="M406.88,229.355H115.653c-16.278,0-29.474-13.196-29.474-29.474v241.438l0,0
	c0,2.401,0.294,4.732,0.836,6.967c9.316,8.193,19.229,15.721,29.671,22.507h278.628c10.755-6.99,20.949-14.768,30.507-23.249
	V248.296C425.821,237.835,417.341,229.355,406.88,229.355z"/>
<path style="fill:#13132B;" d="M425.821,314.976h-42.898c-19.386,0-35.102,15.716-35.102,35.102v9.994
	c0,24.906,20.19,45.096,45.096,45.096h32.905v-90.192H425.821z"/>
<path style="fill:#39375E;" d="M392.916,395.167h33.371c4.161,0,7.533-3.373,7.533-7.533V312.51c0-4.161-3.373-7.533-7.533-7.533
	h-33.371c-24.906,0-45.096,20.19-45.096,45.096l0,0C347.821,374.977,368.011,395.167,392.916,395.167z"/>
<circle style="fill:#F3D75C;" cx="390.82" cy="350.07" r="26.741"/>
<path style="fill:#E8C63A;" d="M374.08,350.072c0-13.059,9.363-23.925,21.741-26.267c-1.62-0.307-3.29-0.474-5-0.474
	c-14.769,0-26.741,11.972-26.741,26.741s11.972,26.741,26.741,26.741c1.71,0,3.38-0.167,5-0.474
	C383.443,373.997,374.08,363.131,374.08,350.072z"/>
<g>
</g>
<g>
</g>
<g>
</g>
<g>
</g>
<g>
</g>
<g>
</g>
<g>
</g>
<g>
</g>
<g>
</g>
<g>
</g>
<g>
</g>
<g>
</g>
<g>
</g>
<g>
</g>
<g>
</g>
</svg>
